<mxfile host="app.diagrams.net" agent="Mozilla/5.0 (Windows NT 10.0; Win64; x64) AppleWebKit/537.36 (KHTML, like Gecko) Chrome/138.0.0.0 Safari/537.36" version="28.1.0">
  <diagram name="Seite-1" id="WWTvrGOokQbHTszkcPet">
    <mxGraphModel dx="1308" dy="550" grid="1" gridSize="10" guides="1" tooltips="1" connect="1" arrows="1" fold="1" page="1" pageScale="1" pageWidth="827" pageHeight="1169" math="0" shadow="0">
      <root>
        <mxCell id="0" />
        <mxCell id="kjXNbdknxgFZG0ey-R28-45" value="Produktionsprozess" parent="0" />
        <mxCell id="9w9Xh2U-Y_duheg7cGsQ-5" value="" style="edgeStyle=orthogonalEdgeStyle;rounded=0;orthogonalLoop=1;jettySize=auto;html=1;" parent="kjXNbdknxgFZG0ey-R28-45" source="9w9Xh2U-Y_duheg7cGsQ-1" target="9w9Xh2U-Y_duheg7cGsQ-2" edge="1">
          <mxGeometry relative="1" as="geometry" />
        </mxCell>
        <mxCell id="9w9Xh2U-Y_duheg7cGsQ-1" value="Ingest" style="rounded=1;whiteSpace=wrap;html=1;" parent="kjXNbdknxgFZG0ey-R28-45" vertex="1">
          <mxGeometry x="200" y="190" width="80" height="40" as="geometry" />
        </mxCell>
        <mxCell id="9w9Xh2U-Y_duheg7cGsQ-6" value="" style="edgeStyle=orthogonalEdgeStyle;rounded=0;orthogonalLoop=1;jettySize=auto;html=1;" parent="kjXNbdknxgFZG0ey-R28-45" source="9w9Xh2U-Y_duheg7cGsQ-2" target="9w9Xh2U-Y_duheg7cGsQ-3" edge="1">
          <mxGeometry relative="1" as="geometry" />
        </mxCell>
        <mxCell id="9w9Xh2U-Y_duheg7cGsQ-2" value="Schnitt" style="rounded=1;whiteSpace=wrap;html=1;" parent="kjXNbdknxgFZG0ey-R28-45" vertex="1">
          <mxGeometry x="320" y="190" width="80" height="40" as="geometry" />
        </mxCell>
        <mxCell id="9w9Xh2U-Y_duheg7cGsQ-7" value="" style="edgeStyle=orthogonalEdgeStyle;rounded=0;orthogonalLoop=1;jettySize=auto;html=1;" parent="kjXNbdknxgFZG0ey-R28-45" source="9w9Xh2U-Y_duheg7cGsQ-3" target="9w9Xh2U-Y_duheg7cGsQ-4" edge="1">
          <mxGeometry relative="1" as="geometry" />
        </mxCell>
        <mxCell id="9w9Xh2U-Y_duheg7cGsQ-3" value="Nach-&lt;div&gt;bearbeitung&lt;/div&gt;" style="rounded=1;whiteSpace=wrap;html=1;" parent="kjXNbdknxgFZG0ey-R28-45" vertex="1">
          <mxGeometry x="440" y="190" width="80" height="40" as="geometry" />
        </mxCell>
        <mxCell id="9w9Xh2U-Y_duheg7cGsQ-4" value="Publikation" style="rounded=1;whiteSpace=wrap;html=1;" parent="kjXNbdknxgFZG0ey-R28-45" vertex="1">
          <mxGeometry x="560" y="190" width="80" height="40" as="geometry" />
        </mxCell>
        <mxCell id="9w9Xh2U-Y_duheg7cGsQ-9" value="" style="endArrow=classic;html=1;rounded=0;entryX=0;entryY=0.75;entryDx=0;entryDy=0;" parent="kjXNbdknxgFZG0ey-R28-45" target="9w9Xh2U-Y_duheg7cGsQ-1" edge="1">
          <mxGeometry width="50" height="50" relative="1" as="geometry">
            <mxPoint x="160" y="230" as="sourcePoint" />
            <mxPoint x="350" y="210" as="targetPoint" />
          </mxGeometry>
        </mxCell>
        <mxCell id="9w9Xh2U-Y_duheg7cGsQ-10" value="" style="endArrow=classic;html=1;rounded=0;entryX=0;entryY=0.5;entryDx=0;entryDy=0;" parent="kjXNbdknxgFZG0ey-R28-45" target="9w9Xh2U-Y_duheg7cGsQ-1" edge="1">
          <mxGeometry width="50" height="50" relative="1" as="geometry">
            <mxPoint x="160" y="210" as="sourcePoint" />
            <mxPoint x="230" y="220" as="targetPoint" />
          </mxGeometry>
        </mxCell>
        <mxCell id="9w9Xh2U-Y_duheg7cGsQ-11" value="" style="endArrow=classic;html=1;rounded=0;entryX=0;entryY=0.25;entryDx=0;entryDy=0;" parent="kjXNbdknxgFZG0ey-R28-45" target="9w9Xh2U-Y_duheg7cGsQ-1" edge="1">
          <mxGeometry width="50" height="50" relative="1" as="geometry">
            <mxPoint x="160" y="190" as="sourcePoint" />
            <mxPoint x="180" y="190" as="targetPoint" />
          </mxGeometry>
        </mxCell>
        <mxCell id="9w9Xh2U-Y_duheg7cGsQ-12" value="Rohmaterial" style="text;html=1;align=center;verticalAlign=middle;whiteSpace=wrap;rounded=0;rotation=-90;" parent="kjXNbdknxgFZG0ey-R28-45" vertex="1">
          <mxGeometry x="120" y="205" width="70" height="10" as="geometry" />
        </mxCell>
        <mxCell id="kjXNbdknxgFZG0ey-R28-46" value="Produktionsprozess_with_loops" parent="0" />
        <mxCell id="9w9Xh2U-Y_duheg7cGsQ-31" value="" style="edgeStyle=orthogonalEdgeStyle;rounded=0;orthogonalLoop=1;jettySize=auto;html=1;" parent="kjXNbdknxgFZG0ey-R28-46" source="9w9Xh2U-Y_duheg7cGsQ-32" target="9w9Xh2U-Y_duheg7cGsQ-34" edge="1">
          <mxGeometry relative="1" as="geometry" />
        </mxCell>
        <mxCell id="9w9Xh2U-Y_duheg7cGsQ-32" value="Ingest" style="rounded=1;whiteSpace=wrap;html=1;" parent="kjXNbdknxgFZG0ey-R28-46" vertex="1">
          <mxGeometry x="200" y="290" width="80" height="40" as="geometry" />
        </mxCell>
        <mxCell id="9w9Xh2U-Y_duheg7cGsQ-33" value="" style="edgeStyle=orthogonalEdgeStyle;rounded=0;orthogonalLoop=1;jettySize=auto;html=1;" parent="kjXNbdknxgFZG0ey-R28-46" source="9w9Xh2U-Y_duheg7cGsQ-34" target="9w9Xh2U-Y_duheg7cGsQ-36" edge="1">
          <mxGeometry relative="1" as="geometry" />
        </mxCell>
        <mxCell id="9w9Xh2U-Y_duheg7cGsQ-34" value="Schnitt" style="rounded=1;whiteSpace=wrap;html=1;" parent="kjXNbdknxgFZG0ey-R28-46" vertex="1">
          <mxGeometry x="320" y="290" width="80" height="40" as="geometry" />
        </mxCell>
        <mxCell id="9w9Xh2U-Y_duheg7cGsQ-35" value="" style="edgeStyle=orthogonalEdgeStyle;rounded=0;orthogonalLoop=1;jettySize=auto;html=1;" parent="kjXNbdknxgFZG0ey-R28-46" source="9w9Xh2U-Y_duheg7cGsQ-36" target="9w9Xh2U-Y_duheg7cGsQ-37" edge="1">
          <mxGeometry relative="1" as="geometry" />
        </mxCell>
        <mxCell id="9w9Xh2U-Y_duheg7cGsQ-36" value="Nach-&lt;div&gt;bearbeitung&lt;/div&gt;" style="rounded=1;whiteSpace=wrap;html=1;" parent="kjXNbdknxgFZG0ey-R28-46" vertex="1">
          <mxGeometry x="440" y="290" width="80" height="40" as="geometry" />
        </mxCell>
        <mxCell id="9w9Xh2U-Y_duheg7cGsQ-37" value="Publikation" style="rounded=1;whiteSpace=wrap;html=1;" parent="kjXNbdknxgFZG0ey-R28-46" vertex="1">
          <mxGeometry x="560" y="290" width="80" height="40" as="geometry" />
        </mxCell>
        <mxCell id="9w9Xh2U-Y_duheg7cGsQ-38" value="" style="endArrow=classic;html=1;rounded=0;entryX=0;entryY=0.75;entryDx=0;entryDy=0;" parent="kjXNbdknxgFZG0ey-R28-46" target="9w9Xh2U-Y_duheg7cGsQ-32" edge="1">
          <mxGeometry width="50" height="50" relative="1" as="geometry">
            <mxPoint x="160" y="330" as="sourcePoint" />
            <mxPoint x="350" y="310" as="targetPoint" />
          </mxGeometry>
        </mxCell>
        <mxCell id="9w9Xh2U-Y_duheg7cGsQ-39" value="" style="endArrow=classic;html=1;rounded=0;entryX=0;entryY=0.5;entryDx=0;entryDy=0;" parent="kjXNbdknxgFZG0ey-R28-46" target="9w9Xh2U-Y_duheg7cGsQ-32" edge="1">
          <mxGeometry width="50" height="50" relative="1" as="geometry">
            <mxPoint x="160" y="310" as="sourcePoint" />
            <mxPoint x="230" y="320" as="targetPoint" />
          </mxGeometry>
        </mxCell>
        <mxCell id="9w9Xh2U-Y_duheg7cGsQ-40" value="" style="endArrow=classic;html=1;rounded=0;entryX=0;entryY=0.25;entryDx=0;entryDy=0;" parent="kjXNbdknxgFZG0ey-R28-46" target="9w9Xh2U-Y_duheg7cGsQ-32" edge="1">
          <mxGeometry width="50" height="50" relative="1" as="geometry">
            <mxPoint x="160" y="290" as="sourcePoint" />
            <mxPoint x="180" y="290" as="targetPoint" />
          </mxGeometry>
        </mxCell>
        <mxCell id="9w9Xh2U-Y_duheg7cGsQ-41" value="Rohmaterial" style="text;html=1;align=center;verticalAlign=middle;whiteSpace=wrap;rounded=0;rotation=-90;" parent="kjXNbdknxgFZG0ey-R28-46" vertex="1">
          <mxGeometry x="120" y="305" width="70" height="10" as="geometry" />
        </mxCell>
        <mxCell id="kjXNbdknxgFZG0ey-R28-60" value="n" style="endArrow=classic;html=1;rounded=0;" parent="kjXNbdknxgFZG0ey-R28-46" edge="1">
          <mxGeometry width="50" height="50" relative="1" as="geometry">
            <mxPoint x="530" y="310" as="sourcePoint" />
            <mxPoint x="420" y="310" as="targetPoint" />
            <Array as="points">
              <mxPoint x="530" y="280" />
              <mxPoint x="420" y="280" />
            </Array>
          </mxGeometry>
        </mxCell>
        <mxCell id="kjXNbdknxgFZG0ey-R28-71" value="n" style="endArrow=classic;html=1;rounded=0;" parent="kjXNbdknxgFZG0ey-R28-46" edge="1">
          <mxGeometry width="50" height="50" relative="1" as="geometry">
            <mxPoint x="410" y="310" as="sourcePoint" />
            <mxPoint x="300" y="310" as="targetPoint" />
            <Array as="points">
              <mxPoint x="410" y="280" />
              <mxPoint x="300" y="280" />
            </Array>
          </mxGeometry>
        </mxCell>
        <mxCell id="kjXNbdknxgFZG0ey-R28-47" value="Produktionsprozess_with_loops_and_transitions" style="" parent="0" />
        <mxCell id="9w9Xh2U-Y_duheg7cGsQ-13" value="" style="edgeStyle=orthogonalEdgeStyle;rounded=0;orthogonalLoop=1;jettySize=auto;html=1;" parent="kjXNbdknxgFZG0ey-R28-47" source="9w9Xh2U-Y_duheg7cGsQ-14" target="9w9Xh2U-Y_duheg7cGsQ-16" edge="1">
          <mxGeometry relative="1" as="geometry" />
        </mxCell>
        <mxCell id="9w9Xh2U-Y_duheg7cGsQ-14" value="Ingest" style="rounded=1;whiteSpace=wrap;html=1;" parent="kjXNbdknxgFZG0ey-R28-47" vertex="1">
          <mxGeometry x="200" y="400" width="80" height="40" as="geometry" />
        </mxCell>
        <mxCell id="9w9Xh2U-Y_duheg7cGsQ-15" value="" style="edgeStyle=orthogonalEdgeStyle;rounded=0;orthogonalLoop=1;jettySize=auto;html=1;" parent="kjXNbdknxgFZG0ey-R28-47" source="9w9Xh2U-Y_duheg7cGsQ-16" target="9w9Xh2U-Y_duheg7cGsQ-18" edge="1">
          <mxGeometry relative="1" as="geometry" />
        </mxCell>
        <mxCell id="9w9Xh2U-Y_duheg7cGsQ-16" value="Schnitt" style="rounded=1;whiteSpace=wrap;html=1;" parent="kjXNbdknxgFZG0ey-R28-47" vertex="1">
          <mxGeometry x="320" y="400" width="80" height="40" as="geometry" />
        </mxCell>
        <mxCell id="9w9Xh2U-Y_duheg7cGsQ-17" value="" style="edgeStyle=orthogonalEdgeStyle;rounded=0;orthogonalLoop=1;jettySize=auto;html=1;" parent="kjXNbdknxgFZG0ey-R28-47" source="9w9Xh2U-Y_duheg7cGsQ-18" target="9w9Xh2U-Y_duheg7cGsQ-19" edge="1">
          <mxGeometry relative="1" as="geometry" />
        </mxCell>
        <mxCell id="9w9Xh2U-Y_duheg7cGsQ-18" value="Nach-&lt;div&gt;bearbeitung&lt;/div&gt;" style="rounded=1;whiteSpace=wrap;html=1;" parent="kjXNbdknxgFZG0ey-R28-47" vertex="1">
          <mxGeometry x="440" y="400" width="80" height="40" as="geometry" />
        </mxCell>
        <mxCell id="9w9Xh2U-Y_duheg7cGsQ-19" value="Publikation" style="rounded=1;whiteSpace=wrap;html=1;" parent="kjXNbdknxgFZG0ey-R28-47" vertex="1">
          <mxGeometry x="560" y="400" width="80" height="40" as="geometry" />
        </mxCell>
        <mxCell id="9w9Xh2U-Y_duheg7cGsQ-20" value="" style="endArrow=classic;html=1;rounded=0;entryX=0;entryY=0.75;entryDx=0;entryDy=0;" parent="kjXNbdknxgFZG0ey-R28-47" target="9w9Xh2U-Y_duheg7cGsQ-14" edge="1">
          <mxGeometry width="50" height="50" relative="1" as="geometry">
            <mxPoint x="160" y="440" as="sourcePoint" />
            <mxPoint x="350" y="420" as="targetPoint" />
          </mxGeometry>
        </mxCell>
        <mxCell id="9w9Xh2U-Y_duheg7cGsQ-21" value="" style="endArrow=classic;html=1;rounded=0;entryX=0;entryY=0.5;entryDx=0;entryDy=0;" parent="kjXNbdknxgFZG0ey-R28-47" target="9w9Xh2U-Y_duheg7cGsQ-14" edge="1">
          <mxGeometry width="50" height="50" relative="1" as="geometry">
            <mxPoint x="160" y="420" as="sourcePoint" />
            <mxPoint x="230" y="430" as="targetPoint" />
          </mxGeometry>
        </mxCell>
        <mxCell id="9w9Xh2U-Y_duheg7cGsQ-22" value="" style="endArrow=classic;html=1;rounded=0;entryX=0;entryY=0.25;entryDx=0;entryDy=0;" parent="kjXNbdknxgFZG0ey-R28-47" target="9w9Xh2U-Y_duheg7cGsQ-14" edge="1">
          <mxGeometry width="50" height="50" relative="1" as="geometry">
            <mxPoint x="160" y="400" as="sourcePoint" />
            <mxPoint x="180" y="400" as="targetPoint" />
          </mxGeometry>
        </mxCell>
        <mxCell id="9w9Xh2U-Y_duheg7cGsQ-23" value="Rohmaterial" style="text;html=1;align=center;verticalAlign=middle;whiteSpace=wrap;rounded=0;rotation=-90;" parent="kjXNbdknxgFZG0ey-R28-47" vertex="1">
          <mxGeometry x="120" y="415" width="70" height="10" as="geometry" />
        </mxCell>
        <mxCell id="9w9Xh2U-Y_duheg7cGsQ-24" value="" style="endArrow=none;html=1;rounded=0;strokeWidth=2;strokeColor=#FF0000;" parent="kjXNbdknxgFZG0ey-R28-47" edge="1">
          <mxGeometry width="50" height="50" relative="1" as="geometry">
            <mxPoint x="200" y="445" as="sourcePoint" />
            <mxPoint x="200" y="395" as="targetPoint" />
          </mxGeometry>
        </mxCell>
        <mxCell id="9w9Xh2U-Y_duheg7cGsQ-25" value="" style="endArrow=none;html=1;rounded=0;strokeWidth=2;strokeColor=#FF0000;" parent="kjXNbdknxgFZG0ey-R28-47" edge="1">
          <mxGeometry width="50" height="50" relative="1" as="geometry">
            <mxPoint x="319.81" y="445" as="sourcePoint" />
            <mxPoint x="319.81" y="395" as="targetPoint" />
          </mxGeometry>
        </mxCell>
        <mxCell id="9w9Xh2U-Y_duheg7cGsQ-26" value="" style="endArrow=none;html=1;rounded=0;strokeWidth=2;strokeColor=#FF0000;" parent="kjXNbdknxgFZG0ey-R28-47" edge="1">
          <mxGeometry width="50" height="50" relative="1" as="geometry">
            <mxPoint x="440" y="445" as="sourcePoint" />
            <mxPoint x="440" y="395" as="targetPoint" />
          </mxGeometry>
        </mxCell>
        <mxCell id="9w9Xh2U-Y_duheg7cGsQ-27" value="" style="endArrow=none;html=1;rounded=0;strokeWidth=2;strokeColor=#FF0000;" parent="kjXNbdknxgFZG0ey-R28-47" edge="1">
          <mxGeometry width="50" height="50" relative="1" as="geometry">
            <mxPoint x="560" y="445" as="sourcePoint" />
            <mxPoint x="560" y="395" as="targetPoint" />
          </mxGeometry>
        </mxCell>
        <mxCell id="9w9Xh2U-Y_duheg7cGsQ-28" value="" style="endArrow=none;html=1;rounded=0;strokeWidth=2;strokeColor=#4D9900;fillColor=#d5e8d4;" parent="kjXNbdknxgFZG0ey-R28-47" edge="1">
          <mxGeometry width="50" height="50" relative="1" as="geometry">
            <mxPoint x="280" y="445" as="sourcePoint" />
            <mxPoint x="280" y="395" as="targetPoint" />
          </mxGeometry>
        </mxCell>
        <mxCell id="9w9Xh2U-Y_duheg7cGsQ-29" value="" style="endArrow=none;html=1;rounded=0;strokeWidth=2;strokeColor=#4D9900;fillColor=#d5e8d4;" parent="kjXNbdknxgFZG0ey-R28-47" edge="1">
          <mxGeometry width="50" height="50" relative="1" as="geometry">
            <mxPoint x="400" y="445" as="sourcePoint" />
            <mxPoint x="400" y="395" as="targetPoint" />
          </mxGeometry>
        </mxCell>
        <mxCell id="9w9Xh2U-Y_duheg7cGsQ-30" value="" style="endArrow=none;html=1;rounded=0;strokeWidth=2;strokeColor=#4D9900;fillColor=#d5e8d4;" parent="kjXNbdknxgFZG0ey-R28-47" edge="1">
          <mxGeometry width="50" height="50" relative="1" as="geometry">
            <mxPoint x="520" y="445" as="sourcePoint" />
            <mxPoint x="520" y="395" as="targetPoint" />
          </mxGeometry>
        </mxCell>
        <mxCell id="9w9Xh2U-Y_duheg7cGsQ-102" value="" style="whiteSpace=wrap;html=1;aspect=fixed;strokeColor=none;fillColor=light-dark(#ff0000, #ededed);" parent="kjXNbdknxgFZG0ey-R28-47" vertex="1">
          <mxGeometry x="150" y="465" width="10" height="10" as="geometry" />
        </mxCell>
        <mxCell id="9w9Xh2U-Y_duheg7cGsQ-103" value="" style="whiteSpace=wrap;html=1;aspect=fixed;strokeColor=none;fillColor=light-dark(#4D9900,#EDEDED);" parent="kjXNbdknxgFZG0ey-R28-47" vertex="1">
          <mxGeometry x="420" y="465" width="10" height="10" as="geometry" />
        </mxCell>
        <mxCell id="9w9Xh2U-Y_duheg7cGsQ-104" value="Überprüfen eines Sicherheitsmerkmals" style="text;html=1;align=left;verticalAlign=middle;whiteSpace=wrap;rounded=0;" parent="kjXNbdknxgFZG0ey-R28-47" vertex="1">
          <mxGeometry x="160" y="465" width="210" height="10" as="geometry" />
        </mxCell>
        <mxCell id="9w9Xh2U-Y_duheg7cGsQ-105" value="Hinzufügen eines Sicherheitsmerkmals" style="text;html=1;align=left;verticalAlign=middle;whiteSpace=wrap;rounded=0;" parent="kjXNbdknxgFZG0ey-R28-47" vertex="1">
          <mxGeometry x="430" y="465" width="210" height="10" as="geometry" />
        </mxCell>
        <mxCell id="kjXNbdknxgFZG0ey-R28-65" value="n" style="endArrow=classic;html=1;rounded=0;" parent="kjXNbdknxgFZG0ey-R28-47" edge="1">
          <mxGeometry width="50" height="50" relative="1" as="geometry">
            <mxPoint x="530" y="420" as="sourcePoint" />
            <mxPoint x="420" y="420" as="targetPoint" />
            <Array as="points">
              <mxPoint x="530" y="390" />
              <mxPoint x="420" y="390" />
            </Array>
          </mxGeometry>
        </mxCell>
        <mxCell id="kjXNbdknxgFZG0ey-R28-72" value="n" style="endArrow=classic;html=1;rounded=0;" parent="kjXNbdknxgFZG0ey-R28-47" edge="1">
          <mxGeometry width="50" height="50" relative="1" as="geometry">
            <mxPoint x="410" y="420" as="sourcePoint" />
            <mxPoint x="300" y="420" as="targetPoint" />
            <Array as="points">
              <mxPoint x="410" y="390" />
              <mxPoint x="300" y="390" />
            </Array>
          </mxGeometry>
        </mxCell>
        <mxCell id="kjXNbdknxgFZG0ey-R28-48" value="Produktionsprozess_with_storage" parent="0" />
        <mxCell id="9w9Xh2U-Y_duheg7cGsQ-60" value="" style="edgeStyle=orthogonalEdgeStyle;rounded=0;orthogonalLoop=1;jettySize=auto;html=1;" parent="kjXNbdknxgFZG0ey-R28-48" source="9w9Xh2U-Y_duheg7cGsQ-49" target="9w9Xh2U-Y_duheg7cGsQ-59" edge="1">
          <mxGeometry relative="1" as="geometry">
            <Array as="points">
              <mxPoint x="240" y="630" />
              <mxPoint x="240" y="630" />
            </Array>
          </mxGeometry>
        </mxCell>
        <mxCell id="9w9Xh2U-Y_duheg7cGsQ-49" value="Ingest" style="rounded=1;whiteSpace=wrap;html=1;" parent="kjXNbdknxgFZG0ey-R28-48" vertex="1">
          <mxGeometry x="200" y="560" width="80" height="40" as="geometry" />
        </mxCell>
        <mxCell id="9w9Xh2U-Y_duheg7cGsQ-61" value="" style="edgeStyle=orthogonalEdgeStyle;rounded=0;orthogonalLoop=1;jettySize=auto;html=1;" parent="kjXNbdknxgFZG0ey-R28-48" source="9w9Xh2U-Y_duheg7cGsQ-51" target="9w9Xh2U-Y_duheg7cGsQ-59" edge="1">
          <mxGeometry relative="1" as="geometry">
            <Array as="points">
              <mxPoint x="350" y="610" />
              <mxPoint x="350" y="610" />
            </Array>
          </mxGeometry>
        </mxCell>
        <mxCell id="9w9Xh2U-Y_duheg7cGsQ-51" value="Schnitt" style="rounded=1;whiteSpace=wrap;html=1;" parent="kjXNbdknxgFZG0ey-R28-48" vertex="1">
          <mxGeometry x="320" y="560" width="80" height="40" as="geometry" />
        </mxCell>
        <mxCell id="9w9Xh2U-Y_duheg7cGsQ-65" value="" style="edgeStyle=orthogonalEdgeStyle;rounded=0;orthogonalLoop=1;jettySize=auto;html=1;" parent="kjXNbdknxgFZG0ey-R28-48" source="9w9Xh2U-Y_duheg7cGsQ-53" target="9w9Xh2U-Y_duheg7cGsQ-59" edge="1">
          <mxGeometry relative="1" as="geometry">
            <Array as="points">
              <mxPoint x="490" y="610" />
              <mxPoint x="490" y="610" />
            </Array>
          </mxGeometry>
        </mxCell>
        <mxCell id="9w9Xh2U-Y_duheg7cGsQ-53" value="Nach-&lt;div&gt;bearbeitung&lt;/div&gt;" style="rounded=1;whiteSpace=wrap;html=1;" parent="kjXNbdknxgFZG0ey-R28-48" vertex="1">
          <mxGeometry x="440" y="560" width="80" height="40" as="geometry" />
        </mxCell>
        <mxCell id="9w9Xh2U-Y_duheg7cGsQ-54" value="Publikation" style="rounded=1;whiteSpace=wrap;html=1;" parent="kjXNbdknxgFZG0ey-R28-48" vertex="1">
          <mxGeometry x="560" y="560" width="80" height="40" as="geometry" />
        </mxCell>
        <mxCell id="9w9Xh2U-Y_duheg7cGsQ-55" value="" style="endArrow=classic;html=1;rounded=0;entryX=0;entryY=0.75;entryDx=0;entryDy=0;" parent="kjXNbdknxgFZG0ey-R28-48" target="9w9Xh2U-Y_duheg7cGsQ-49" edge="1">
          <mxGeometry width="50" height="50" relative="1" as="geometry">
            <mxPoint x="160" y="600" as="sourcePoint" />
            <mxPoint x="350" y="580" as="targetPoint" />
          </mxGeometry>
        </mxCell>
        <mxCell id="9w9Xh2U-Y_duheg7cGsQ-56" value="" style="endArrow=classic;html=1;rounded=0;entryX=0;entryY=0.5;entryDx=0;entryDy=0;" parent="kjXNbdknxgFZG0ey-R28-48" target="9w9Xh2U-Y_duheg7cGsQ-49" edge="1">
          <mxGeometry width="50" height="50" relative="1" as="geometry">
            <mxPoint x="160" y="580" as="sourcePoint" />
            <mxPoint x="230" y="590" as="targetPoint" />
          </mxGeometry>
        </mxCell>
        <mxCell id="9w9Xh2U-Y_duheg7cGsQ-57" value="" style="endArrow=classic;html=1;rounded=0;entryX=0;entryY=0.25;entryDx=0;entryDy=0;" parent="kjXNbdknxgFZG0ey-R28-48" target="9w9Xh2U-Y_duheg7cGsQ-49" edge="1">
          <mxGeometry width="50" height="50" relative="1" as="geometry">
            <mxPoint x="160" y="560" as="sourcePoint" />
            <mxPoint x="180" y="560" as="targetPoint" />
          </mxGeometry>
        </mxCell>
        <mxCell id="9w9Xh2U-Y_duheg7cGsQ-58" value="Rohmaterial" style="text;html=1;align=center;verticalAlign=middle;whiteSpace=wrap;rounded=0;rotation=-90;" parent="kjXNbdknxgFZG0ey-R28-48" vertex="1">
          <mxGeometry x="120" y="575" width="70" height="10" as="geometry" />
        </mxCell>
        <mxCell id="9w9Xh2U-Y_duheg7cGsQ-62" value="" style="edgeStyle=orthogonalEdgeStyle;rounded=0;orthogonalLoop=1;jettySize=auto;html=1;entryX=0.5;entryY=1;entryDx=0;entryDy=0;" parent="kjXNbdknxgFZG0ey-R28-48" edge="1">
          <mxGeometry relative="1" as="geometry">
            <mxPoint x="369.9999999999999" y="640" as="sourcePoint" />
            <mxPoint x="370" y="600" as="targetPoint" />
            <Array as="points">
              <mxPoint x="370" y="630" />
              <mxPoint x="370" y="630" />
            </Array>
          </mxGeometry>
        </mxCell>
        <mxCell id="9w9Xh2U-Y_duheg7cGsQ-63" value="" style="edgeStyle=orthogonalEdgeStyle;rounded=0;orthogonalLoop=1;jettySize=auto;html=1;" parent="kjXNbdknxgFZG0ey-R28-48" source="9w9Xh2U-Y_duheg7cGsQ-59" target="9w9Xh2U-Y_duheg7cGsQ-53" edge="1">
          <mxGeometry relative="1" as="geometry">
            <Array as="points">
              <mxPoint x="470" y="610" />
              <mxPoint x="470" y="610" />
            </Array>
          </mxGeometry>
        </mxCell>
        <mxCell id="9w9Xh2U-Y_duheg7cGsQ-66" value="" style="edgeStyle=orthogonalEdgeStyle;rounded=0;orthogonalLoop=1;jettySize=auto;html=1;entryX=0.5;entryY=1;entryDx=0;entryDy=0;" parent="kjXNbdknxgFZG0ey-R28-48" source="9w9Xh2U-Y_duheg7cGsQ-59" target="9w9Xh2U-Y_duheg7cGsQ-54" edge="1">
          <mxGeometry relative="1" as="geometry">
            <Array as="points">
              <mxPoint x="600" y="620" />
              <mxPoint x="600" y="620" />
            </Array>
          </mxGeometry>
        </mxCell>
        <mxCell id="9w9Xh2U-Y_duheg7cGsQ-59" value="Speichersystem" style="rounded=1;whiteSpace=wrap;html=1;" parent="kjXNbdknxgFZG0ey-R28-48" vertex="1">
          <mxGeometry x="200" y="640" width="440" height="40" as="geometry" />
        </mxCell>
        <mxCell id="kjXNbdknxgFZG0ey-R28-49" value="Produktionsprozess_with_storage_and_transitions" parent="0" />
        <mxCell id="9w9Xh2U-Y_duheg7cGsQ-67" value="" style="edgeStyle=orthogonalEdgeStyle;rounded=0;orthogonalLoop=1;jettySize=auto;html=1;" parent="kjXNbdknxgFZG0ey-R28-49" source="9w9Xh2U-Y_duheg7cGsQ-68" target="9w9Xh2U-Y_duheg7cGsQ-81" edge="1">
          <mxGeometry relative="1" as="geometry">
            <Array as="points">
              <mxPoint x="240" y="830" />
              <mxPoint x="240" y="830" />
            </Array>
          </mxGeometry>
        </mxCell>
        <mxCell id="9w9Xh2U-Y_duheg7cGsQ-68" value="Ingest" style="rounded=1;whiteSpace=wrap;html=1;" parent="kjXNbdknxgFZG0ey-R28-49" vertex="1">
          <mxGeometry x="200" y="760" width="80" height="40" as="geometry" />
        </mxCell>
        <mxCell id="9w9Xh2U-Y_duheg7cGsQ-91" value="" style="edgeStyle=orthogonalEdgeStyle;rounded=0;orthogonalLoop=1;jettySize=auto;html=1;" parent="kjXNbdknxgFZG0ey-R28-49" source="9w9Xh2U-Y_duheg7cGsQ-70" target="9w9Xh2U-Y_duheg7cGsQ-81" edge="1">
          <mxGeometry relative="1" as="geometry">
            <Array as="points">
              <mxPoint x="370" y="830" />
              <mxPoint x="370" y="830" />
            </Array>
          </mxGeometry>
        </mxCell>
        <mxCell id="9w9Xh2U-Y_duheg7cGsQ-70" value="Schnitt" style="rounded=1;whiteSpace=wrap;html=1;" parent="kjXNbdknxgFZG0ey-R28-49" vertex="1">
          <mxGeometry x="320" y="760" width="80" height="40" as="geometry" />
        </mxCell>
        <mxCell id="9w9Xh2U-Y_duheg7cGsQ-71" value="" style="edgeStyle=orthogonalEdgeStyle;rounded=0;orthogonalLoop=1;jettySize=auto;html=1;" parent="kjXNbdknxgFZG0ey-R28-49" source="9w9Xh2U-Y_duheg7cGsQ-72" target="9w9Xh2U-Y_duheg7cGsQ-81" edge="1">
          <mxGeometry relative="1" as="geometry">
            <Array as="points">
              <mxPoint x="490" y="810" />
              <mxPoint x="490" y="810" />
            </Array>
          </mxGeometry>
        </mxCell>
        <mxCell id="9w9Xh2U-Y_duheg7cGsQ-72" value="Nach-&lt;div&gt;bearbeitung&lt;/div&gt;" style="rounded=1;whiteSpace=wrap;html=1;" parent="kjXNbdknxgFZG0ey-R28-49" vertex="1">
          <mxGeometry x="440" y="760" width="80" height="40" as="geometry" />
        </mxCell>
        <mxCell id="9w9Xh2U-Y_duheg7cGsQ-73" value="Ausstrahlung" style="rounded=1;whiteSpace=wrap;html=1;" parent="kjXNbdknxgFZG0ey-R28-49" vertex="1">
          <mxGeometry x="560" y="760" width="80" height="40" as="geometry" />
        </mxCell>
        <mxCell id="9w9Xh2U-Y_duheg7cGsQ-74" value="" style="endArrow=classic;html=1;rounded=0;entryX=0;entryY=0.75;entryDx=0;entryDy=0;" parent="kjXNbdknxgFZG0ey-R28-49" target="9w9Xh2U-Y_duheg7cGsQ-68" edge="1">
          <mxGeometry width="50" height="50" relative="1" as="geometry">
            <mxPoint x="160" y="800" as="sourcePoint" />
            <mxPoint x="350" y="780" as="targetPoint" />
          </mxGeometry>
        </mxCell>
        <mxCell id="9w9Xh2U-Y_duheg7cGsQ-75" value="" style="endArrow=classic;html=1;rounded=0;entryX=0;entryY=0.5;entryDx=0;entryDy=0;" parent="kjXNbdknxgFZG0ey-R28-49" target="9w9Xh2U-Y_duheg7cGsQ-68" edge="1">
          <mxGeometry width="50" height="50" relative="1" as="geometry">
            <mxPoint x="160" y="780" as="sourcePoint" />
            <mxPoint x="230" y="790" as="targetPoint" />
          </mxGeometry>
        </mxCell>
        <mxCell id="9w9Xh2U-Y_duheg7cGsQ-76" value="" style="endArrow=classic;html=1;rounded=0;entryX=0;entryY=0.25;entryDx=0;entryDy=0;" parent="kjXNbdknxgFZG0ey-R28-49" target="9w9Xh2U-Y_duheg7cGsQ-68" edge="1">
          <mxGeometry width="50" height="50" relative="1" as="geometry">
            <mxPoint x="160" y="760" as="sourcePoint" />
            <mxPoint x="180" y="760" as="targetPoint" />
          </mxGeometry>
        </mxCell>
        <mxCell id="9w9Xh2U-Y_duheg7cGsQ-77" value="Rohmaterial" style="text;html=1;align=center;verticalAlign=middle;whiteSpace=wrap;rounded=0;rotation=-90;" parent="kjXNbdknxgFZG0ey-R28-49" vertex="1">
          <mxGeometry x="120" y="775" width="70" height="10" as="geometry" />
        </mxCell>
        <mxCell id="9w9Xh2U-Y_duheg7cGsQ-79" value="" style="edgeStyle=orthogonalEdgeStyle;rounded=0;orthogonalLoop=1;jettySize=auto;html=1;" parent="kjXNbdknxgFZG0ey-R28-49" source="9w9Xh2U-Y_duheg7cGsQ-81" target="9w9Xh2U-Y_duheg7cGsQ-72" edge="1">
          <mxGeometry relative="1" as="geometry">
            <Array as="points">
              <mxPoint x="470" y="810" />
              <mxPoint x="470" y="810" />
            </Array>
          </mxGeometry>
        </mxCell>
        <mxCell id="9w9Xh2U-Y_duheg7cGsQ-80" value="" style="edgeStyle=orthogonalEdgeStyle;rounded=0;orthogonalLoop=1;jettySize=auto;html=1;entryX=0.5;entryY=1;entryDx=0;entryDy=0;" parent="kjXNbdknxgFZG0ey-R28-49" source="9w9Xh2U-Y_duheg7cGsQ-81" target="9w9Xh2U-Y_duheg7cGsQ-73" edge="1">
          <mxGeometry relative="1" as="geometry">
            <Array as="points">
              <mxPoint x="600" y="820" />
              <mxPoint x="600" y="820" />
            </Array>
          </mxGeometry>
        </mxCell>
        <mxCell id="9w9Xh2U-Y_duheg7cGsQ-90" value="" style="edgeStyle=orthogonalEdgeStyle;rounded=0;orthogonalLoop=1;jettySize=auto;html=1;" parent="kjXNbdknxgFZG0ey-R28-49" source="9w9Xh2U-Y_duheg7cGsQ-81" edge="1">
          <mxGeometry relative="1" as="geometry">
            <mxPoint x="350" y="800" as="targetPoint" />
            <Array as="points">
              <mxPoint x="350" y="830" />
              <mxPoint x="350" y="830" />
            </Array>
          </mxGeometry>
        </mxCell>
        <mxCell id="9w9Xh2U-Y_duheg7cGsQ-81" value="Speichersystem" style="rounded=1;whiteSpace=wrap;html=1;" parent="kjXNbdknxgFZG0ey-R28-49" vertex="1">
          <mxGeometry x="200" y="840" width="440" height="40" as="geometry" />
        </mxCell>
        <mxCell id="9w9Xh2U-Y_duheg7cGsQ-82" value="" style="endArrow=none;html=1;rounded=0;strokeWidth=2;strokeColor=#FF0000;" parent="kjXNbdknxgFZG0ey-R28-49" edge="1">
          <mxGeometry width="50" height="50" relative="1" as="geometry">
            <mxPoint x="200" y="805" as="sourcePoint" />
            <mxPoint x="200" y="755" as="targetPoint" />
          </mxGeometry>
        </mxCell>
        <mxCell id="9w9Xh2U-Y_duheg7cGsQ-83" value="" style="endArrow=none;html=1;rounded=0;strokeWidth=2;strokeColor=#4D9900;" parent="kjXNbdknxgFZG0ey-R28-49" edge="1">
          <mxGeometry width="50" height="50" relative="1" as="geometry">
            <mxPoint x="250" y="800" as="sourcePoint" />
            <mxPoint x="230" y="800" as="targetPoint" />
          </mxGeometry>
        </mxCell>
        <mxCell id="9w9Xh2U-Y_duheg7cGsQ-84" value="" style="endArrow=none;html=1;rounded=0;strokeWidth=2;strokeColor=#4D9900;" parent="kjXNbdknxgFZG0ey-R28-49" edge="1">
          <mxGeometry width="50" height="50" relative="1" as="geometry">
            <mxPoint x="380" y="800" as="sourcePoint" />
            <mxPoint x="360" y="800" as="targetPoint" />
          </mxGeometry>
        </mxCell>
        <mxCell id="9w9Xh2U-Y_duheg7cGsQ-85" value="" style="endArrow=none;html=1;rounded=0;strokeWidth=2;strokeColor=#FF0000;" parent="kjXNbdknxgFZG0ey-R28-49" edge="1">
          <mxGeometry width="50" height="50" relative="1" as="geometry">
            <mxPoint x="340" y="800" as="sourcePoint" />
            <mxPoint x="360" y="800" as="targetPoint" />
          </mxGeometry>
        </mxCell>
        <mxCell id="9w9Xh2U-Y_duheg7cGsQ-86" value="" style="endArrow=none;html=1;rounded=0;strokeWidth=2;strokeColor=#4D9900;" parent="kjXNbdknxgFZG0ey-R28-49" edge="1">
          <mxGeometry width="50" height="50" relative="1" as="geometry">
            <mxPoint x="500" y="799.73" as="sourcePoint" />
            <mxPoint x="480" y="799.73" as="targetPoint" />
          </mxGeometry>
        </mxCell>
        <mxCell id="9w9Xh2U-Y_duheg7cGsQ-87" value="" style="endArrow=none;html=1;rounded=0;strokeWidth=2;strokeColor=#FF0000;" parent="kjXNbdknxgFZG0ey-R28-49" edge="1">
          <mxGeometry width="50" height="50" relative="1" as="geometry">
            <mxPoint x="460" y="799.73" as="sourcePoint" />
            <mxPoint x="480" y="799.73" as="targetPoint" />
          </mxGeometry>
        </mxCell>
        <mxCell id="9w9Xh2U-Y_duheg7cGsQ-89" value="" style="endArrow=none;html=1;rounded=0;strokeWidth=2;strokeColor=#FF0000;" parent="kjXNbdknxgFZG0ey-R28-49" edge="1">
          <mxGeometry width="50" height="50" relative="1" as="geometry">
            <mxPoint x="590" y="800" as="sourcePoint" />
            <mxPoint x="610" y="800" as="targetPoint" />
          </mxGeometry>
        </mxCell>
        <mxCell id="9w9Xh2U-Y_duheg7cGsQ-95" value="" style="whiteSpace=wrap;html=1;aspect=fixed;strokeColor=none;fillColor=light-dark(#ff0000, #ededed);" parent="kjXNbdknxgFZG0ey-R28-49" vertex="1">
          <mxGeometry x="150" y="890" width="10" height="10" as="geometry" />
        </mxCell>
        <mxCell id="9w9Xh2U-Y_duheg7cGsQ-98" value="" style="whiteSpace=wrap;html=1;aspect=fixed;strokeColor=none;fillColor=light-dark(#4D9900,#EDEDED);" parent="kjXNbdknxgFZG0ey-R28-49" vertex="1">
          <mxGeometry x="420" y="890" width="10" height="10" as="geometry" />
        </mxCell>
        <mxCell id="9w9Xh2U-Y_duheg7cGsQ-100" value="Überprüfen eines Sicherheitsmerkmals" style="text;html=1;align=left;verticalAlign=middle;whiteSpace=wrap;rounded=0;" parent="kjXNbdknxgFZG0ey-R28-49" vertex="1">
          <mxGeometry x="160" y="890" width="210" height="10" as="geometry" />
        </mxCell>
        <mxCell id="9w9Xh2U-Y_duheg7cGsQ-101" value="Hinzufügen eines Sicherheitsmerkmals" style="text;html=1;align=left;verticalAlign=middle;whiteSpace=wrap;rounded=0;" parent="kjXNbdknxgFZG0ey-R28-49" vertex="1">
          <mxGeometry x="430" y="890" width="210" height="10" as="geometry" />
        </mxCell>
        <mxCell id="P6iB7T7O2YDKpYpo3pcA-0" value="Produktionsprozess_with_transitions" style="" parent="0" />
        <mxCell id="P6iB7T7O2YDKpYpo3pcA-1" value="" style="edgeStyle=orthogonalEdgeStyle;rounded=0;orthogonalLoop=1;jettySize=auto;html=1;" parent="P6iB7T7O2YDKpYpo3pcA-0" source="P6iB7T7O2YDKpYpo3pcA-2" target="P6iB7T7O2YDKpYpo3pcA-4" edge="1">
          <mxGeometry relative="1" as="geometry" />
        </mxCell>
        <mxCell id="P6iB7T7O2YDKpYpo3pcA-2" value="Ingest" style="rounded=1;whiteSpace=wrap;html=1;" parent="P6iB7T7O2YDKpYpo3pcA-0" vertex="1">
          <mxGeometry x="200" y="70" width="80" height="40" as="geometry" />
        </mxCell>
        <mxCell id="P6iB7T7O2YDKpYpo3pcA-3" value="" style="edgeStyle=orthogonalEdgeStyle;rounded=0;orthogonalLoop=1;jettySize=auto;html=1;" parent="P6iB7T7O2YDKpYpo3pcA-0" source="P6iB7T7O2YDKpYpo3pcA-4" target="P6iB7T7O2YDKpYpo3pcA-6" edge="1">
          <mxGeometry relative="1" as="geometry" />
        </mxCell>
        <mxCell id="P6iB7T7O2YDKpYpo3pcA-4" value="Schnitt" style="rounded=1;whiteSpace=wrap;html=1;" parent="P6iB7T7O2YDKpYpo3pcA-0" vertex="1">
          <mxGeometry x="320" y="70" width="80" height="40" as="geometry" />
        </mxCell>
        <mxCell id="P6iB7T7O2YDKpYpo3pcA-5" value="" style="edgeStyle=orthogonalEdgeStyle;rounded=0;orthogonalLoop=1;jettySize=auto;html=1;" parent="P6iB7T7O2YDKpYpo3pcA-0" source="P6iB7T7O2YDKpYpo3pcA-6" target="P6iB7T7O2YDKpYpo3pcA-7" edge="1">
          <mxGeometry relative="1" as="geometry" />
        </mxCell>
        <mxCell id="P6iB7T7O2YDKpYpo3pcA-6" value="Nach-&lt;div&gt;bearbeitung&lt;/div&gt;" style="rounded=1;whiteSpace=wrap;html=1;" parent="P6iB7T7O2YDKpYpo3pcA-0" vertex="1">
          <mxGeometry x="440" y="70" width="80" height="40" as="geometry" />
        </mxCell>
        <mxCell id="P6iB7T7O2YDKpYpo3pcA-7" value="Publikation" style="rounded=1;whiteSpace=wrap;html=1;" parent="P6iB7T7O2YDKpYpo3pcA-0" vertex="1">
          <mxGeometry x="560" y="70" width="80" height="40" as="geometry" />
        </mxCell>
        <mxCell id="P6iB7T7O2YDKpYpo3pcA-8" value="" style="endArrow=classic;html=1;rounded=0;entryX=0;entryY=0.75;entryDx=0;entryDy=0;" parent="P6iB7T7O2YDKpYpo3pcA-0" target="P6iB7T7O2YDKpYpo3pcA-2" edge="1">
          <mxGeometry width="50" height="50" relative="1" as="geometry">
            <mxPoint x="160" y="110" as="sourcePoint" />
            <mxPoint x="350" y="90" as="targetPoint" />
          </mxGeometry>
        </mxCell>
        <mxCell id="P6iB7T7O2YDKpYpo3pcA-9" value="" style="endArrow=classic;html=1;rounded=0;entryX=0;entryY=0.5;entryDx=0;entryDy=0;" parent="P6iB7T7O2YDKpYpo3pcA-0" target="P6iB7T7O2YDKpYpo3pcA-2" edge="1">
          <mxGeometry width="50" height="50" relative="1" as="geometry">
            <mxPoint x="160" y="90" as="sourcePoint" />
            <mxPoint x="230" y="100" as="targetPoint" />
          </mxGeometry>
        </mxCell>
        <mxCell id="P6iB7T7O2YDKpYpo3pcA-10" value="" style="endArrow=classic;html=1;rounded=0;entryX=0;entryY=0.25;entryDx=0;entryDy=0;" parent="P6iB7T7O2YDKpYpo3pcA-0" target="P6iB7T7O2YDKpYpo3pcA-2" edge="1">
          <mxGeometry width="50" height="50" relative="1" as="geometry">
            <mxPoint x="160" y="70" as="sourcePoint" />
            <mxPoint x="180" y="70" as="targetPoint" />
          </mxGeometry>
        </mxCell>
        <mxCell id="P6iB7T7O2YDKpYpo3pcA-11" value="Rohmaterial" style="text;html=1;align=center;verticalAlign=middle;whiteSpace=wrap;rounded=0;rotation=-90;" parent="P6iB7T7O2YDKpYpo3pcA-0" vertex="1">
          <mxGeometry x="120" y="85" width="70" height="10" as="geometry" />
        </mxCell>
        <mxCell id="P6iB7T7O2YDKpYpo3pcA-12" value="" style="endArrow=none;html=1;rounded=0;strokeWidth=2;strokeColor=#FF0000;" parent="P6iB7T7O2YDKpYpo3pcA-0" edge="1">
          <mxGeometry width="50" height="50" relative="1" as="geometry">
            <mxPoint x="200" y="115" as="sourcePoint" />
            <mxPoint x="200" y="65" as="targetPoint" />
          </mxGeometry>
        </mxCell>
        <mxCell id="P6iB7T7O2YDKpYpo3pcA-13" value="" style="endArrow=none;html=1;rounded=0;strokeWidth=2;strokeColor=#FF0000;" parent="P6iB7T7O2YDKpYpo3pcA-0" edge="1">
          <mxGeometry width="50" height="50" relative="1" as="geometry">
            <mxPoint x="319.81" y="115" as="sourcePoint" />
            <mxPoint x="319.81" y="65" as="targetPoint" />
          </mxGeometry>
        </mxCell>
        <mxCell id="P6iB7T7O2YDKpYpo3pcA-14" value="" style="endArrow=none;html=1;rounded=0;strokeWidth=2;strokeColor=#FF0000;" parent="P6iB7T7O2YDKpYpo3pcA-0" edge="1">
          <mxGeometry width="50" height="50" relative="1" as="geometry">
            <mxPoint x="440" y="115" as="sourcePoint" />
            <mxPoint x="440" y="65" as="targetPoint" />
          </mxGeometry>
        </mxCell>
        <mxCell id="P6iB7T7O2YDKpYpo3pcA-15" value="" style="endArrow=none;html=1;rounded=0;strokeWidth=2;strokeColor=#FF0000;" parent="P6iB7T7O2YDKpYpo3pcA-0" edge="1">
          <mxGeometry width="50" height="50" relative="1" as="geometry">
            <mxPoint x="560" y="115" as="sourcePoint" />
            <mxPoint x="560" y="65" as="targetPoint" />
          </mxGeometry>
        </mxCell>
        <mxCell id="P6iB7T7O2YDKpYpo3pcA-16" value="" style="endArrow=none;html=1;rounded=0;strokeWidth=2;strokeColor=#4D9900;fillColor=#d5e8d4;" parent="P6iB7T7O2YDKpYpo3pcA-0" edge="1">
          <mxGeometry width="50" height="50" relative="1" as="geometry">
            <mxPoint x="280" y="115" as="sourcePoint" />
            <mxPoint x="280" y="65" as="targetPoint" />
          </mxGeometry>
        </mxCell>
        <mxCell id="P6iB7T7O2YDKpYpo3pcA-17" value="" style="endArrow=none;html=1;rounded=0;strokeWidth=2;strokeColor=#4D9900;fillColor=#d5e8d4;" parent="P6iB7T7O2YDKpYpo3pcA-0" edge="1">
          <mxGeometry width="50" height="50" relative="1" as="geometry">
            <mxPoint x="400" y="115" as="sourcePoint" />
            <mxPoint x="400" y="65" as="targetPoint" />
          </mxGeometry>
        </mxCell>
        <mxCell id="P6iB7T7O2YDKpYpo3pcA-18" value="" style="endArrow=none;html=1;rounded=0;strokeWidth=2;strokeColor=#4D9900;fillColor=#d5e8d4;" parent="P6iB7T7O2YDKpYpo3pcA-0" edge="1">
          <mxGeometry width="50" height="50" relative="1" as="geometry">
            <mxPoint x="520" y="115" as="sourcePoint" />
            <mxPoint x="520" y="65" as="targetPoint" />
          </mxGeometry>
        </mxCell>
        <mxCell id="P6iB7T7O2YDKpYpo3pcA-19" value="" style="whiteSpace=wrap;html=1;aspect=fixed;strokeColor=none;fillColor=light-dark(#ff0000, #ededed);" parent="P6iB7T7O2YDKpYpo3pcA-0" vertex="1">
          <mxGeometry x="150" y="135" width="10" height="10" as="geometry" />
        </mxCell>
        <mxCell id="P6iB7T7O2YDKpYpo3pcA-20" value="" style="whiteSpace=wrap;html=1;aspect=fixed;strokeColor=none;fillColor=light-dark(#4D9900,#EDEDED);" parent="P6iB7T7O2YDKpYpo3pcA-0" vertex="1">
          <mxGeometry x="420" y="135" width="10" height="10" as="geometry" />
        </mxCell>
        <mxCell id="P6iB7T7O2YDKpYpo3pcA-21" value="Überprüfen eines Sicherheitsmerkmals" style="text;html=1;align=left;verticalAlign=middle;whiteSpace=wrap;rounded=0;" parent="P6iB7T7O2YDKpYpo3pcA-0" vertex="1">
          <mxGeometry x="160" y="135" width="210" height="10" as="geometry" />
        </mxCell>
        <mxCell id="P6iB7T7O2YDKpYpo3pcA-22" value="Hinzufügen eines Sicherheitsmerkmals" style="text;html=1;align=left;verticalAlign=middle;whiteSpace=wrap;rounded=0;" parent="P6iB7T7O2YDKpYpo3pcA-0" vertex="1">
          <mxGeometry x="430" y="135" width="210" height="10" as="geometry" />
        </mxCell>
        <mxCell id="MHyfRsvACrbZkxD28zs7-0" value="Containerformat" parent="0" />
        <mxCell id="MHyfRsvACrbZkxD28zs7-1" value="" style="rounded=1;whiteSpace=wrap;html=1;" parent="MHyfRsvACrbZkxD28zs7-0" vertex="1">
          <mxGeometry x="160" y="970" width="120" height="210" as="geometry" />
        </mxCell>
        <mxCell id="MHyfRsvACrbZkxD28zs7-2" value="" style="rounded=1;whiteSpace=wrap;html=1;fillColor=#f8cecc;strokeColor=#b85450;" parent="MHyfRsvACrbZkxD28zs7-0" vertex="1">
          <mxGeometry x="175" y="1060" width="90" height="40" as="geometry" />
        </mxCell>
        <mxCell id="MHyfRsvACrbZkxD28zs7-3" value="" style="rounded=1;whiteSpace=wrap;html=1;fillColor=#fff2cc;strokeColor=#d6b656;" parent="MHyfRsvACrbZkxD28zs7-0" vertex="1">
          <mxGeometry x="175" y="1129" width="90" height="40" as="geometry" />
        </mxCell>
        <mxCell id="MHyfRsvACrbZkxD28zs7-5" value="Containerformat" style="text;html=1;align=center;verticalAlign=middle;resizable=0;points=[];autosize=1;strokeColor=none;fillColor=none;" parent="MHyfRsvACrbZkxD28zs7-0" vertex="1">
          <mxGeometry x="165" y="940" width="110" height="30" as="geometry" />
        </mxCell>
        <mxCell id="MHyfRsvACrbZkxD28zs7-6" value="Videocodec" style="text;html=1;align=center;verticalAlign=middle;resizable=0;points=[];autosize=1;strokeColor=none;fillColor=none;" parent="MHyfRsvACrbZkxD28zs7-0" vertex="1">
          <mxGeometry x="175" y="1037" width="90" height="30" as="geometry" />
        </mxCell>
        <mxCell id="MHyfRsvACrbZkxD28zs7-7" value="Audioocodec" style="text;html=1;align=center;verticalAlign=middle;resizable=0;points=[];autosize=1;strokeColor=none;fillColor=none;rotation=0;" parent="MHyfRsvACrbZkxD28zs7-0" vertex="1">
          <mxGeometry x="175" y="1106" width="90" height="30" as="geometry" />
        </mxCell>
        <mxCell id="MHyfRsvACrbZkxD28zs7-8" value="Metadaten" style="rounded=1;whiteSpace=wrap;html=1;fillColor=#eeeeee;strokeColor=#36393d;" parent="MHyfRsvACrbZkxD28zs7-0" vertex="1">
          <mxGeometry x="175" y="990" width="90" height="40" as="geometry" />
        </mxCell>
        <mxCell id="MHyfRsvACrbZkxD28zs7-10" value="Videodaten" style="rounded=1;whiteSpace=wrap;html=1;fillColor=#eeeeee;strokeColor=#36393d;" parent="MHyfRsvACrbZkxD28zs7-0" vertex="1">
          <mxGeometry x="181.25" y="1065" width="77.5" height="30" as="geometry" />
        </mxCell>
        <mxCell id="MHyfRsvACrbZkxD28zs7-11" value="Audiodaten" style="rounded=1;whiteSpace=wrap;html=1;fillColor=#eeeeee;strokeColor=#36393d;" parent="MHyfRsvACrbZkxD28zs7-0" vertex="1">
          <mxGeometry x="181.25" y="1134" width="77.5" height="30" as="geometry" />
        </mxCell>
        <mxCell id="MHyfRsvACrbZkxD28zs7-12" value="Hausformat" parent="0" />
        <mxCell id="MHyfRsvACrbZkxD28zs7-13" value="" style="rounded=1;whiteSpace=wrap;html=1;" parent="MHyfRsvACrbZkxD28zs7-12" vertex="1">
          <mxGeometry x="320" y="970" width="120" height="210" as="geometry" />
        </mxCell>
        <mxCell id="MHyfRsvACrbZkxD28zs7-14" value="" style="rounded=1;whiteSpace=wrap;html=1;fillColor=#f8cecc;strokeColor=#b85450;" parent="MHyfRsvACrbZkxD28zs7-12" vertex="1">
          <mxGeometry x="335" y="1060" width="90" height="40" as="geometry" />
        </mxCell>
        <mxCell id="MHyfRsvACrbZkxD28zs7-15" value="" style="rounded=1;whiteSpace=wrap;html=1;fillColor=#fff2cc;strokeColor=#d6b656;" parent="MHyfRsvACrbZkxD28zs7-12" vertex="1">
          <mxGeometry x="335" y="1129" width="90" height="40" as="geometry" />
        </mxCell>
        <mxCell id="MHyfRsvACrbZkxD28zs7-16" value="MXF" style="text;html=1;align=center;verticalAlign=middle;resizable=0;points=[];autosize=1;strokeColor=none;fillColor=none;" parent="MHyfRsvACrbZkxD28zs7-12" vertex="1">
          <mxGeometry x="355" y="940" width="50" height="30" as="geometry" />
        </mxCell>
        <mxCell id="MHyfRsvACrbZkxD28zs7-17" value="MPEG-2 4:2:2P@HL" style="text;html=1;align=center;verticalAlign=middle;resizable=0;points=[];autosize=1;strokeColor=none;fillColor=none;" parent="MHyfRsvACrbZkxD28zs7-12" vertex="1">
          <mxGeometry x="310" y="1037" width="140" height="30" as="geometry" />
        </mxCell>
        <mxCell id="MHyfRsvACrbZkxD28zs7-18" value="&lt;font&gt;uncompressed audio&lt;/font&gt;&lt;div&gt;&lt;font&gt;(24-bit, 48 kHz)&lt;/font&gt;&lt;/div&gt;" style="text;html=1;align=center;verticalAlign=middle;resizable=0;points=[];autosize=1;strokeColor=none;fillColor=none;rotation=0;" parent="MHyfRsvACrbZkxD28zs7-12" vertex="1">
          <mxGeometry x="315" y="1095" width="130" height="40" as="geometry" />
        </mxCell>
        <mxCell id="MHyfRsvACrbZkxD28zs7-19" value="Metadaten" style="rounded=1;whiteSpace=wrap;html=1;fillColor=#eeeeee;strokeColor=#36393d;" parent="MHyfRsvACrbZkxD28zs7-12" vertex="1">
          <mxGeometry x="335" y="990" width="90" height="40" as="geometry" />
        </mxCell>
        <mxCell id="MHyfRsvACrbZkxD28zs7-20" value="Videodaten" style="rounded=1;whiteSpace=wrap;html=1;fillColor=#eeeeee;strokeColor=#36393d;" parent="MHyfRsvACrbZkxD28zs7-12" vertex="1">
          <mxGeometry x="341.25" y="1065" width="77.5" height="30" as="geometry" />
        </mxCell>
        <mxCell id="MHyfRsvACrbZkxD28zs7-21" value="Audiodaten" style="rounded=1;whiteSpace=wrap;html=1;fillColor=#eeeeee;strokeColor=#36393d;" parent="MHyfRsvACrbZkxD28zs7-12" vertex="1">
          <mxGeometry x="341.25" y="1134" width="77.5" height="30" as="geometry" />
        </mxCell>
        <mxCell id="L-YZDN0S-SYS-3_nK5eK-0" value="Produktionsprozess_with_storage_and_transitions_detailed" parent="0" />
        <mxCell id="L-YZDN0S-SYS-3_nK5eK-38" value="" style="edgeStyle=orthogonalEdgeStyle;rounded=0;orthogonalLoop=1;jettySize=auto;html=1;" edge="1" parent="L-YZDN0S-SYS-3_nK5eK-0" source="L-YZDN0S-SYS-3_nK5eK-2" target="L-YZDN0S-SYS-3_nK5eK-33">
          <mxGeometry relative="1" as="geometry" />
        </mxCell>
        <mxCell id="L-YZDN0S-SYS-3_nK5eK-2" value="Ingest" style="rounded=1;whiteSpace=wrap;html=1;" vertex="1" parent="L-YZDN0S-SYS-3_nK5eK-0">
          <mxGeometry x="190" y="1275" width="80" height="40" as="geometry" />
        </mxCell>
        <mxCell id="L-YZDN0S-SYS-3_nK5eK-56" value="" style="edgeStyle=orthogonalEdgeStyle;rounded=0;orthogonalLoop=1;jettySize=auto;html=1;" edge="1" parent="L-YZDN0S-SYS-3_nK5eK-0" source="L-YZDN0S-SYS-3_nK5eK-4" target="L-YZDN0S-SYS-3_nK5eK-36">
          <mxGeometry relative="1" as="geometry">
            <Array as="points">
              <mxPoint x="360" y="1330" />
              <mxPoint x="360" y="1330" />
            </Array>
          </mxGeometry>
        </mxCell>
        <mxCell id="L-YZDN0S-SYS-3_nK5eK-4" value="Schnitt" style="rounded=1;whiteSpace=wrap;html=1;" vertex="1" parent="L-YZDN0S-SYS-3_nK5eK-0">
          <mxGeometry x="310" y="1275" width="80" height="40" as="geometry" />
        </mxCell>
        <mxCell id="L-YZDN0S-SYS-3_nK5eK-83" value="" style="edgeStyle=orthogonalEdgeStyle;rounded=0;orthogonalLoop=1;jettySize=auto;html=1;" edge="1" parent="L-YZDN0S-SYS-3_nK5eK-0" source="L-YZDN0S-SYS-3_nK5eK-6" target="L-YZDN0S-SYS-3_nK5eK-82">
          <mxGeometry relative="1" as="geometry">
            <Array as="points">
              <mxPoint x="480" y="1320" />
              <mxPoint x="480" y="1320" />
            </Array>
          </mxGeometry>
        </mxCell>
        <mxCell id="L-YZDN0S-SYS-3_nK5eK-6" value="Nach-&lt;div&gt;bearbeitung&lt;/div&gt;" style="rounded=1;whiteSpace=wrap;html=1;" vertex="1" parent="L-YZDN0S-SYS-3_nK5eK-0">
          <mxGeometry x="430" y="1275" width="80" height="40" as="geometry" />
        </mxCell>
        <mxCell id="L-YZDN0S-SYS-3_nK5eK-7" value="Ausstrahlung" style="rounded=1;whiteSpace=wrap;html=1;" vertex="1" parent="L-YZDN0S-SYS-3_nK5eK-0">
          <mxGeometry x="550" y="1275" width="80" height="40" as="geometry" />
        </mxCell>
        <mxCell id="L-YZDN0S-SYS-3_nK5eK-8" value="" style="endArrow=classic;html=1;rounded=0;entryX=0;entryY=0.75;entryDx=0;entryDy=0;" edge="1" parent="L-YZDN0S-SYS-3_nK5eK-0" target="L-YZDN0S-SYS-3_nK5eK-2">
          <mxGeometry width="50" height="50" relative="1" as="geometry">
            <mxPoint x="150" y="1315" as="sourcePoint" />
            <mxPoint x="340" y="1295" as="targetPoint" />
          </mxGeometry>
        </mxCell>
        <mxCell id="L-YZDN0S-SYS-3_nK5eK-9" value="" style="endArrow=classic;html=1;rounded=0;entryX=0;entryY=0.5;entryDx=0;entryDy=0;" edge="1" parent="L-YZDN0S-SYS-3_nK5eK-0" target="L-YZDN0S-SYS-3_nK5eK-2">
          <mxGeometry width="50" height="50" relative="1" as="geometry">
            <mxPoint x="150" y="1295" as="sourcePoint" />
            <mxPoint x="220" y="1305" as="targetPoint" />
          </mxGeometry>
        </mxCell>
        <mxCell id="L-YZDN0S-SYS-3_nK5eK-10" value="" style="endArrow=classic;html=1;rounded=0;entryX=0;entryY=0.25;entryDx=0;entryDy=0;" edge="1" parent="L-YZDN0S-SYS-3_nK5eK-0" target="L-YZDN0S-SYS-3_nK5eK-2">
          <mxGeometry width="50" height="50" relative="1" as="geometry">
            <mxPoint x="150" y="1275" as="sourcePoint" />
            <mxPoint x="170" y="1275" as="targetPoint" />
          </mxGeometry>
        </mxCell>
        <mxCell id="L-YZDN0S-SYS-3_nK5eK-11" value="Rohmaterial" style="text;html=1;align=center;verticalAlign=middle;whiteSpace=wrap;rounded=0;rotation=-90;" vertex="1" parent="L-YZDN0S-SYS-3_nK5eK-0">
          <mxGeometry x="110" y="1290" width="70" height="10" as="geometry" />
        </mxCell>
        <mxCell id="L-YZDN0S-SYS-3_nK5eK-23" value="" style="whiteSpace=wrap;html=1;aspect=fixed;strokeColor=none;fillColor=light-dark(#ff0000, #ededed);" vertex="1" parent="L-YZDN0S-SYS-3_nK5eK-0">
          <mxGeometry x="160" y="1570" width="10" height="10" as="geometry" />
        </mxCell>
        <mxCell id="L-YZDN0S-SYS-3_nK5eK-24" value="" style="whiteSpace=wrap;html=1;aspect=fixed;strokeColor=none;fillColor=light-dark(#4D9900,#EDEDED);" vertex="1" parent="L-YZDN0S-SYS-3_nK5eK-0">
          <mxGeometry x="430" y="1570" width="10" height="10" as="geometry" />
        </mxCell>
        <mxCell id="L-YZDN0S-SYS-3_nK5eK-25" value="Überprüfen eines Sicherheitsmerkmals" style="text;html=1;align=left;verticalAlign=middle;whiteSpace=wrap;rounded=0;" vertex="1" parent="L-YZDN0S-SYS-3_nK5eK-0">
          <mxGeometry x="170" y="1570" width="210" height="10" as="geometry" />
        </mxCell>
        <mxCell id="L-YZDN0S-SYS-3_nK5eK-26" value="Hinzufügen eines Sicherheitsmerkmals" style="text;html=1;align=left;verticalAlign=middle;whiteSpace=wrap;rounded=0;" vertex="1" parent="L-YZDN0S-SYS-3_nK5eK-0">
          <mxGeometry x="440" y="1570" width="210" height="10" as="geometry" />
        </mxCell>
        <mxCell id="L-YZDN0S-SYS-3_nK5eK-64" value="" style="edgeStyle=orthogonalEdgeStyle;rounded=0;orthogonalLoop=1;jettySize=auto;html=1;" edge="1" parent="L-YZDN0S-SYS-3_nK5eK-0" source="L-YZDN0S-SYS-3_nK5eK-29" target="L-YZDN0S-SYS-3_nK5eK-43">
          <mxGeometry relative="1" as="geometry">
            <Array as="points">
              <mxPoint x="360" y="1460" />
              <mxPoint x="360" y="1460" />
            </Array>
          </mxGeometry>
        </mxCell>
        <mxCell id="L-YZDN0S-SYS-3_nK5eK-29" value="Script" style="rounded=1;whiteSpace=wrap;html=1;fillColor=light-dark(#4d9900, #ededed);" vertex="1" parent="L-YZDN0S-SYS-3_nK5eK-0">
          <mxGeometry x="330" y="1390" width="60" height="20" as="geometry" />
        </mxCell>
        <mxCell id="L-YZDN0S-SYS-3_nK5eK-33" value="Ingest&amp;nbsp;&lt;div&gt;Quarantäne-bereich&lt;/div&gt;" style="rounded=1;whiteSpace=wrap;html=1;" vertex="1" parent="L-YZDN0S-SYS-3_nK5eK-0">
          <mxGeometry x="180" y="1340" width="100" height="50" as="geometry" />
        </mxCell>
        <mxCell id="L-YZDN0S-SYS-3_nK5eK-36" value="&lt;div&gt;Ausgangs-&lt;/div&gt;&lt;div&gt;bereich&lt;/div&gt;" style="rounded=1;whiteSpace=wrap;html=1;strokeColor=default;align=center;verticalAlign=middle;fontFamily=Helvetica;fontSize=12;fontColor=default;fillColor=default;" vertex="1" parent="L-YZDN0S-SYS-3_nK5eK-0">
          <mxGeometry x="330" y="1340" width="60" height="50" as="geometry" />
        </mxCell>
        <mxCell id="L-YZDN0S-SYS-3_nK5eK-57" value="" style="edgeStyle=orthogonalEdgeStyle;rounded=0;orthogonalLoop=1;jettySize=auto;html=1;entryX=0.12;entryY=0.993;entryDx=0;entryDy=0;entryPerimeter=0;" edge="1" parent="L-YZDN0S-SYS-3_nK5eK-0" source="L-YZDN0S-SYS-3_nK5eK-43" target="L-YZDN0S-SYS-3_nK5eK-4">
          <mxGeometry relative="1" as="geometry">
            <Array as="points">
              <mxPoint x="320" y="1408" />
              <mxPoint x="320" y="1408" />
            </Array>
          </mxGeometry>
        </mxCell>
        <mxCell id="L-YZDN0S-SYS-3_nK5eK-86" value="" style="edgeStyle=orthogonalEdgeStyle;rounded=0;orthogonalLoop=1;jettySize=auto;html=1;entryX=0.125;entryY=1.013;entryDx=0;entryDy=0;entryPerimeter=0;" edge="1" parent="L-YZDN0S-SYS-3_nK5eK-0" source="L-YZDN0S-SYS-3_nK5eK-43" target="L-YZDN0S-SYS-3_nK5eK-6">
          <mxGeometry relative="1" as="geometry">
            <mxPoint x="440" y="1320" as="targetPoint" />
            <Array as="points">
              <mxPoint x="440" y="1440" />
              <mxPoint x="440" y="1440" />
            </Array>
          </mxGeometry>
        </mxCell>
        <mxCell id="L-YZDN0S-SYS-3_nK5eK-88" value="" style="edgeStyle=orthogonalEdgeStyle;rounded=0;orthogonalLoop=1;jettySize=auto;html=1;" edge="1" parent="L-YZDN0S-SYS-3_nK5eK-0" source="L-YZDN0S-SYS-3_nK5eK-43" target="L-YZDN0S-SYS-3_nK5eK-7">
          <mxGeometry relative="1" as="geometry">
            <Array as="points">
              <mxPoint x="590" y="1430" />
              <mxPoint x="590" y="1430" />
            </Array>
          </mxGeometry>
        </mxCell>
        <mxCell id="L-YZDN0S-SYS-3_nK5eK-43" value="Sicherer Bereich" style="rounded=1;whiteSpace=wrap;html=1;fillColor=light-dark(#ff0000, #ededed);" vertex="1" parent="L-YZDN0S-SYS-3_nK5eK-0">
          <mxGeometry x="170" y="1500" width="470" height="50" as="geometry" />
        </mxCell>
        <mxCell id="L-YZDN0S-SYS-3_nK5eK-45" value="" style="whiteSpace=wrap;html=1;aspect=fixed;strokeColor=none;fillColor=light-dark(#FF33FF,#EDEDED);" vertex="1" parent="L-YZDN0S-SYS-3_nK5eK-0">
          <mxGeometry x="160" y="1590" width="10" height="10" as="geometry" />
        </mxCell>
        <mxCell id="L-YZDN0S-SYS-3_nK5eK-46" value="Überprüfen des Rohmaterials" style="text;html=1;align=left;verticalAlign=middle;whiteSpace=wrap;rounded=0;" vertex="1" parent="L-YZDN0S-SYS-3_nK5eK-0">
          <mxGeometry x="170" y="1590" width="210" height="10" as="geometry" />
        </mxCell>
        <mxCell id="L-YZDN0S-SYS-3_nK5eK-47" value="Unsicherer&lt;div&gt;Bereich&lt;/div&gt;" style="rounded=1;whiteSpace=wrap;html=1;" vertex="1" parent="L-YZDN0S-SYS-3_nK5eK-0">
          <mxGeometry x="170" y="1440" width="70" height="50" as="geometry" />
        </mxCell>
        <mxCell id="L-YZDN0S-SYS-3_nK5eK-65" value="Script" style="rounded=1;whiteSpace=wrap;html=1;fillColor=light-dark(#ff33ff, #ededed);" vertex="1" parent="L-YZDN0S-SYS-3_nK5eK-0">
          <mxGeometry x="180" y="1390" width="100" height="20" as="geometry" />
        </mxCell>
        <mxCell id="L-YZDN0S-SYS-3_nK5eK-76" value="" style="edgeStyle=orthogonalEdgeStyle;rounded=0;orthogonalLoop=1;jettySize=auto;html=1;" edge="1" parent="L-YZDN0S-SYS-3_nK5eK-0" source="L-YZDN0S-SYS-3_nK5eK-71" target="L-YZDN0S-SYS-3_nK5eK-47">
          <mxGeometry relative="1" as="geometry" />
        </mxCell>
        <mxCell id="L-YZDN0S-SYS-3_nK5eK-71" value="-" style="rounded=1;whiteSpace=wrap;html=1;fillColor=light-dark(#ffffff, #ededed);" vertex="1" parent="L-YZDN0S-SYS-3_nK5eK-0">
          <mxGeometry x="180" y="1410" width="50" height="10" as="geometry" />
        </mxCell>
        <mxCell id="L-YZDN0S-SYS-3_nK5eK-73" value="" style="edgeStyle=orthogonalEdgeStyle;rounded=0;orthogonalLoop=1;jettySize=auto;html=1;" edge="1" parent="L-YZDN0S-SYS-3_nK5eK-0" source="L-YZDN0S-SYS-3_nK5eK-72">
          <mxGeometry relative="1" as="geometry">
            <mxPoint x="255" y="1500" as="targetPoint" />
          </mxGeometry>
        </mxCell>
        <mxCell id="L-YZDN0S-SYS-3_nK5eK-72" value="+" style="rounded=1;whiteSpace=wrap;html=1;fillColor=light-dark(#4d9900, #ededed);" vertex="1" parent="L-YZDN0S-SYS-3_nK5eK-0">
          <mxGeometry x="230" y="1410" width="50" height="10" as="geometry" />
        </mxCell>
        <mxCell id="L-YZDN0S-SYS-3_nK5eK-87" value="" style="edgeStyle=orthogonalEdgeStyle;rounded=0;orthogonalLoop=1;jettySize=auto;html=1;" edge="1" parent="L-YZDN0S-SYS-3_nK5eK-0" source="L-YZDN0S-SYS-3_nK5eK-81" target="L-YZDN0S-SYS-3_nK5eK-43">
          <mxGeometry relative="1" as="geometry">
            <Array as="points">
              <mxPoint x="480" y="1470" />
              <mxPoint x="480" y="1470" />
            </Array>
          </mxGeometry>
        </mxCell>
        <mxCell id="L-YZDN0S-SYS-3_nK5eK-81" value="Script" style="rounded=1;whiteSpace=wrap;html=1;fillColor=light-dark(#4d9900, #ededed);" vertex="1" parent="L-YZDN0S-SYS-3_nK5eK-0">
          <mxGeometry x="450" y="1390" width="60" height="20" as="geometry" />
        </mxCell>
        <mxCell id="L-YZDN0S-SYS-3_nK5eK-82" value="&lt;div&gt;Ausgangs-&lt;/div&gt;&lt;div&gt;bereich&lt;/div&gt;" style="rounded=1;whiteSpace=wrap;html=1;strokeColor=default;align=center;verticalAlign=middle;fontFamily=Helvetica;fontSize=12;fontColor=default;fillColor=default;" vertex="1" parent="L-YZDN0S-SYS-3_nK5eK-0">
          <mxGeometry x="450" y="1340" width="60" height="50" as="geometry" />
        </mxCell>
        <mxCell id="L-YZDN0S-SYS-3_nK5eK-89" value="C2PA_architecture_ingest" parent="0" />
        <mxCell id="L-YZDN0S-SYS-3_nK5eK-137" value="" style="edgeStyle=orthogonalEdgeStyle;rounded=0;orthogonalLoop=1;jettySize=auto;html=1;entryX=0;entryY=0.5;entryDx=0;entryDy=0;" edge="1" parent="L-YZDN0S-SYS-3_nK5eK-89" source="L-YZDN0S-SYS-3_nK5eK-90" target="L-YZDN0S-SYS-3_nK5eK-130">
          <mxGeometry relative="1" as="geometry">
            <Array as="points">
              <mxPoint x="480" y="1760" />
              <mxPoint x="480" y="1715" />
            </Array>
          </mxGeometry>
        </mxCell>
        <mxCell id="L-YZDN0S-SYS-3_nK5eK-138" value="Positives&lt;div&gt;Prüfergebnis&lt;/div&gt;" style="edgeLabel;html=1;align=center;verticalAlign=middle;resizable=0;points=[];" vertex="1" connectable="0" parent="L-YZDN0S-SYS-3_nK5eK-137">
          <mxGeometry x="-0.1725" y="1" relative="1" as="geometry">
            <mxPoint y="-4" as="offset" />
          </mxGeometry>
        </mxCell>
        <mxCell id="L-YZDN0S-SYS-3_nK5eK-90" value="Ingest&amp;nbsp;&lt;div&gt;Quarantäne-bereich&lt;/div&gt;" style="shape=datastore;whiteSpace=wrap;html=1;strokeWidth=1;" vertex="1" parent="L-YZDN0S-SYS-3_nK5eK-89">
          <mxGeometry x="350" y="1679" width="90" height="161" as="geometry" />
        </mxCell>
        <mxCell id="L-YZDN0S-SYS-3_nK5eK-93" value="" style="rounded=0;whiteSpace=wrap;html=1;strokeColor=light-dark(#bfbfbf, #ededed);" vertex="1" parent="L-YZDN0S-SYS-3_nK5eK-89">
          <mxGeometry x="160" y="1679" width="100" height="211" as="geometry" />
        </mxCell>
        <mxCell id="L-YZDN0S-SYS-3_nK5eK-95" value="Ingest-System" style="text;html=1;align=center;verticalAlign=middle;whiteSpace=wrap;rounded=0;" vertex="1" parent="L-YZDN0S-SYS-3_nK5eK-89">
          <mxGeometry x="170" y="1660" width="80" height="20" as="geometry" />
        </mxCell>
        <mxCell id="L-YZDN0S-SYS-3_nK5eK-98" value="Aufzeichnung" style="rounded=0;whiteSpace=wrap;html=1;" vertex="1" parent="L-YZDN0S-SYS-3_nK5eK-89">
          <mxGeometry x="170" y="1690" width="80" height="20" as="geometry" />
        </mxCell>
        <mxCell id="L-YZDN0S-SYS-3_nK5eK-125" value="" style="edgeStyle=orthogonalEdgeStyle;rounded=0;orthogonalLoop=1;jettySize=auto;html=1;" edge="1" parent="L-YZDN0S-SYS-3_nK5eK-89" source="L-YZDN0S-SYS-3_nK5eK-104" target="L-YZDN0S-SYS-3_nK5eK-90">
          <mxGeometry relative="1" as="geometry">
            <Array as="points">
              <mxPoint x="320" y="1730" />
              <mxPoint x="320" y="1730" />
            </Array>
          </mxGeometry>
        </mxCell>
        <mxCell id="L-YZDN0S-SYS-3_nK5eK-126" value="Speichern" style="edgeLabel;html=1;align=center;verticalAlign=middle;resizable=0;points=[];" vertex="1" connectable="0" parent="L-YZDN0S-SYS-3_nK5eK-125">
          <mxGeometry x="0.3211" y="-1" relative="1" as="geometry">
            <mxPoint x="-6" y="-1" as="offset" />
          </mxGeometry>
        </mxCell>
        <mxCell id="L-YZDN0S-SYS-3_nK5eK-104" value="Transcoding" style="rounded=0;whiteSpace=wrap;html=1;" vertex="1" parent="L-YZDN0S-SYS-3_nK5eK-89">
          <mxGeometry x="170" y="1720" width="80" height="20" as="geometry" />
        </mxCell>
        <mxCell id="L-YZDN0S-SYS-3_nK5eK-107" value="Direkte&lt;div&gt;Speicherung&lt;/div&gt;" style="rounded=0;whiteSpace=wrap;html=1;" vertex="1" parent="L-YZDN0S-SYS-3_nK5eK-89">
          <mxGeometry x="170" y="1750" width="80" height="40" as="geometry" />
        </mxCell>
        <mxCell id="L-YZDN0S-SYS-3_nK5eK-128" value="" style="edgeStyle=orthogonalEdgeStyle;rounded=0;orthogonalLoop=1;jettySize=auto;html=1;" edge="1" parent="L-YZDN0S-SYS-3_nK5eK-89" source="L-YZDN0S-SYS-3_nK5eK-108" target="L-YZDN0S-SYS-3_nK5eK-90">
          <mxGeometry relative="1" as="geometry">
            <Array as="points">
              <mxPoint x="320" y="1810" />
              <mxPoint x="320" y="1810" />
            </Array>
          </mxGeometry>
        </mxCell>
        <mxCell id="L-YZDN0S-SYS-3_nK5eK-129" value="Überwachen" style="edgeLabel;html=1;align=center;verticalAlign=middle;resizable=0;points=[];" vertex="1" connectable="0" parent="L-YZDN0S-SYS-3_nK5eK-128">
          <mxGeometry x="-0.5745" y="-1" relative="1" as="geometry">
            <mxPoint x="29" y="-1" as="offset" />
          </mxGeometry>
        </mxCell>
        <mxCell id="L-YZDN0S-SYS-3_nK5eK-135" value="" style="edgeStyle=orthogonalEdgeStyle;rounded=0;orthogonalLoop=1;jettySize=auto;html=1;" edge="1" parent="L-YZDN0S-SYS-3_nK5eK-89" source="L-YZDN0S-SYS-3_nK5eK-108" target="L-YZDN0S-SYS-3_nK5eK-132">
          <mxGeometry relative="1" as="geometry" />
        </mxCell>
        <mxCell id="L-YZDN0S-SYS-3_nK5eK-136" value="Liest" style="edgeLabel;html=1;align=center;verticalAlign=middle;resizable=0;points=[];" vertex="1" connectable="0" parent="L-YZDN0S-SYS-3_nK5eK-135">
          <mxGeometry x="0.6318" y="-1" relative="1" as="geometry">
            <mxPoint x="1" y="-9" as="offset" />
          </mxGeometry>
        </mxCell>
        <mxCell id="L-YZDN0S-SYS-3_nK5eK-108" value="Script" style="rounded=0;whiteSpace=wrap;html=1;" vertex="1" parent="L-YZDN0S-SYS-3_nK5eK-89">
          <mxGeometry x="170" y="1800" width="80" height="20" as="geometry" />
        </mxCell>
        <mxCell id="L-YZDN0S-SYS-3_nK5eK-121" value="" style="endArrow=none;html=1;rounded=0;exitX=1;exitY=0.5;exitDx=0;exitDy=0;" edge="1" parent="L-YZDN0S-SYS-3_nK5eK-89" source="L-YZDN0S-SYS-3_nK5eK-107">
          <mxGeometry width="50" height="50" relative="1" as="geometry">
            <mxPoint x="300" y="1780" as="sourcePoint" />
            <mxPoint x="270" y="1730" as="targetPoint" />
            <Array as="points">
              <mxPoint x="270" y="1770" />
            </Array>
          </mxGeometry>
        </mxCell>
        <mxCell id="L-YZDN0S-SYS-3_nK5eK-127" value="" style="endArrow=none;html=1;rounded=0;exitX=1;exitY=0.5;exitDx=0;exitDy=0;" edge="1" parent="L-YZDN0S-SYS-3_nK5eK-89" source="L-YZDN0S-SYS-3_nK5eK-98">
          <mxGeometry width="50" height="50" relative="1" as="geometry">
            <mxPoint x="260" y="1780" as="sourcePoint" />
            <mxPoint x="270" y="1730" as="targetPoint" />
            <Array as="points">
              <mxPoint x="270" y="1700" />
            </Array>
          </mxGeometry>
        </mxCell>
        <mxCell id="L-YZDN0S-SYS-3_nK5eK-130" value="Sicherer Bereich" style="shape=datastore;whiteSpace=wrap;html=1;strokeWidth=1;" vertex="1" parent="L-YZDN0S-SYS-3_nK5eK-89">
          <mxGeometry x="530" y="1680" width="90" height="70" as="geometry" />
        </mxCell>
        <mxCell id="L-YZDN0S-SYS-3_nK5eK-131" value="Unsicherer Bereich" style="shape=datastore;whiteSpace=wrap;html=1;strokeWidth=1;" vertex="1" parent="L-YZDN0S-SYS-3_nK5eK-89">
          <mxGeometry x="530" y="1768.5" width="90" height="71.5" as="geometry" />
        </mxCell>
        <mxCell id="L-YZDN0S-SYS-3_nK5eK-132" value="Private(r) Schlüssel" style="rounded=0;whiteSpace=wrap;html=1;" vertex="1" parent="L-YZDN0S-SYS-3_nK5eK-89">
          <mxGeometry x="170" y="1850" width="80" height="31" as="geometry" />
        </mxCell>
        <mxCell id="L-YZDN0S-SYS-3_nK5eK-143" value="" style="endArrow=classic;html=1;rounded=0;exitX=1;exitY=0.5;exitDx=0;exitDy=0;entryX=0;entryY=0.58;entryDx=0;entryDy=0;entryPerimeter=0;" edge="1" parent="L-YZDN0S-SYS-3_nK5eK-89" source="L-YZDN0S-SYS-3_nK5eK-90" target="L-YZDN0S-SYS-3_nK5eK-131">
          <mxGeometry width="50" height="50" relative="1" as="geometry">
            <mxPoint x="510" y="1820" as="sourcePoint" />
            <mxPoint x="560" y="1770" as="targetPoint" />
            <Array as="points">
              <mxPoint x="480" y="1760" />
              <mxPoint x="480" y="1810" />
            </Array>
          </mxGeometry>
        </mxCell>
        <mxCell id="L-YZDN0S-SYS-3_nK5eK-144" value="Negatives&lt;div&gt;Prüfergebnis&lt;/div&gt;" style="edgeLabel;html=1;align=center;verticalAlign=middle;resizable=0;points=[];" vertex="1" connectable="0" parent="L-YZDN0S-SYS-3_nK5eK-143">
          <mxGeometry x="0.0446" y="-1" relative="1" as="geometry">
            <mxPoint y="-9" as="offset" />
          </mxGeometry>
        </mxCell>
      </root>
    </mxGraphModel>
  </diagram>
</mxfile>
